<svg xmlns="http://www.w3.org/2000/svg" xmlns:xlink="http://www.w3.org/1999/xlink" width="196" height="103" viewBox="0 0 196 103">
  <defs>
    <clipPath id="clip-path">
      <rect id="Rectángulo_12" data-name="Rectángulo 12" width="196" height="103" transform="translate(585 9)" fill="#fff" stroke="#707070" stroke-width="1"/>
    </clipPath>
  </defs>
  <g id="Enmascarar_grupo_2" data-name="Enmascarar grupo 2" transform="translate(-585 -9)" clip-path="url(#clip-path)">
    <g id="Grupo_54" data-name="Grupo 54" transform="translate(536.71 -55.493)">
      <path id="Trazado_23" data-name="Trazado 23" d="M475.5,381.25" transform="translate(-311.639 -240.928)" fill="#09f"/>
      <g id="Grupo_53" data-name="Grupo 53" transform="translate(49.29 51.748)">
        <g id="Grupo_48" data-name="Grupo 48" transform="translate(0 33.196)">
          <path id="Trazado_24" data-name="Trazado 24" d="M201.384,271.721c0,5.439,1.209,6.648,2.677,7.166V280.7H191.023a20.228,20.228,0,0,1-1.122-5.439c-2.763,2.849-6.648,6.648-14.851,6.648-6.907,0-13.987-3.885-13.987-13.382,0-8.98,5.7-13.556,13.383-14.678l10.879-1.641c1.9-.259,4.231-1.036,4.231-3.627,0-5.094-4.835-5.353-7.943-5.353-6.044,0-7.08,3.713-7.425,6.389H162.531c1.381-14.073,11.138-16.059,20.549-16.059,6.475,0,18.3,1.986,18.3,13.3Zm-11.829-13.383c-1.209.95-3.195,1.727-8.2,2.5-4.49.777-8.2,1.9-8.2,6.907,0,4.231,3.281,5.526,5.612,5.526,5.353,0,10.792-3.453,10.792-9.066Z" transform="translate(-131.017 -217.882)" fill="#666"/>
          <path id="Trazado_25" data-name="Trazado 25" d="M375.5,234.768v43.515c0,7.943-.6,21.153-23.225,21.153-9.5,0-19.513-4.058-20.031-13.814h13.124c.518,2.331,1.468,4.662,8.461,4.662,6.475,0,9.584-3.108,9.584-10.533v-5.526l-.173-.173c-1.986,3.54-5.008,6.907-12.26,6.907-11.052,0-19.772-7.684-19.772-23.743,0-15.887,8.979-23.657,19.081-23.657,8.548,0,12,5.008,13.469,8.03h.172v-6.821Zm-22.276,36c8.2,0,10.275-6.993,10.275-13.3,0-7.425-3.626-13.469-10.361-13.469-4.49,0-9.5,3.281-9.5,13.987C343.645,263.864,346.062,270.772,353.228,270.772Z" transform="translate(-255.428 -217.882)" fill="#666"/>
          <path id="Trazado_26" data-name="Trazado 26" d="M67.495,191.85V175.24L55,182.5v9.346H49.29v9.922H55V222.28a60.3,60.3,0,0,0,.4,8.769,11.532,11.532,0,0,0,1.75,4.85,8.856,8.856,0,0,0,3.964,2.924,15.6,15.6,0,0,0,6.068,1.13,24.748,24.748,0,0,0,9.833-1.86l-1.063-9.657a16.1,16.1,0,0,1-5.005,1.2,3.508,3.508,0,0,1-2.1-.62,2.726,2.726,0,0,1-1.108-1.572,47.118,47.118,0,0,1-.244-6.71V201.772H76V191.85Z" transform="translate(-49.29 -175.24)" fill="#666"/>
        </g>
        <g id="Grupo_52" data-name="Grupo 52" transform="translate(113.851 0)">
          <g id="Grupo_50" data-name="Grupo 50">
            <g id="Grupo_49" data-name="Grupo 49">
              <circle id="Elipse_1" data-name="Elipse 1" cx="33.42" cy="33.42" r="33.42" transform="translate(0 47.263) rotate(-45)" fill="#09f"/>
              <path id="Trazado_27" data-name="Trazado 27" d="M560.25,310.353l-1.668,16.385,16.385-9.32S572.023,305.349,560.25,310.353Z" transform="translate(-535.529 -239.948)" fill="#09f"/>
            </g>
            <path id="Trazado_28" data-name="Trazado 28" d="M510.4,385.745a7.849,7.849,0,1,1,7.849,7.849A7.849,7.849,0,0,1,510.4,385.745Z" transform="translate(-500.302 -290.223)" fill="#09f"/>
          </g>
          <g id="Grupo_51" data-name="Grupo 51" transform="translate(32.89 23.345)">
            <path id="Trazado_29" data-name="Trazado 29" d="M599.757,138.593a4.582,4.582,0,1,1-4.582,4.582A4.58,4.58,0,0,1,599.757,138.593Zm-4.4,16.52c0-2.351.964-4.4,4.4-4.4s4.4,2.05,4.4,4.4v24.3c0,2.351-.965,4.4-4.4,4.4s-4.4-2.05-4.4-4.4Z" transform="translate(-595.175 -138.593)" fill="#fff"/>
            <path id="Trazado_30" data-name="Trazado 30" d="M641.1,165.811h-1.507c-2.472,0-3.5-.964-3.5-2.894s1.024-2.894,3.5-2.894H641.1v-5.366a4.4,4.4,0,0,1,8.8,0v5.366h2.652c2.593,0,3.98.784,3.98,2.894s-1.387,2.894-3.98,2.894H649.9v17.6c0,1.327.723,2.05,2.291,2.05h1.266a2.761,2.761,0,0,1,3.075,2.955c0,2.532-2.17,3.919-6.391,3.919-6.391,0-9.044-2.653-9.044-7.838Z" transform="translate(-625.094 -147.121)" fill="#fff"/>
          </g>
        </g>
      </g>
    </g>
  </g>
</svg>
